# File created by Blade
# Date/Time:  Fri Jan 16 15:45:56 2015
#---------------------------------------------------------
:version 1.10
:name HOM
:units
  mass 1.0
  length 1.000000
  angle deg
:documentation
     Acclaim Skeleton File
:root
   axis xyz
   order TX TY TZ RX RY RZ
   position 0.000000 0.000000 0.000000
   orientation 0 0 0
:bonedata
   begin
      id 1
      name Spine_dum
      direction 0.000000 1.000000 0.000000
      length 7.170412
      axis 0.0 0.0 0.0 xyz
   end
   begin
      id 2
      name LeftUpLeg_dum
      direction 1.000000 0.000000 0.000000
      length 4.318350
      axis 0.0 0.0 0.0 xyz
   end
   begin
      id 3
      name RightUpLeg_dum
      direction -1.000000 0.000000 0.000000
      length 4.318350
      axis 0.0 0.0 0.0 xyz
   end
   begin
      id 4
      name Spine
      direction 0.000000 1.000000 0.000000
      length 0.000000
      axis 0.0 0.0 0.0 xyz
      dof rx ry rz
   end
   begin
      id 5
      name Spine_dum1
      direction 0.000000 1.000000 0.000000
      length 14.276153
      axis 0.0 0.0 0.0 xyz
   end
   begin
      id 6
      name Spine_dum2
      direction 0.000000 1.000000 0.000000
      length 10.718243
      axis 0.0 0.0 0.0 xyz
   end
   begin
      id 7
      name Spine_dum3
      direction 0.000000 1.000000 0.000000
      length 10.718243
      axis 0.0 0.0 0.0 xyz
   end
   begin
      id 8
      name Head
      direction 0.000000 1.000000 0.000000
      length 4.527550
      axis 0.0 0.0 0.0 xyz
      dof rx ry rz
   end
   begin
      id 9
      name LeftShoulder
      direction 1.000000 0.000000 0.000000
      length 7.058872
      axis 0.0 0.0 -90.0 xyz
      dof rx ry rz
   end
   begin
      id 10
      name LeftArm
      direction 1.000000 0.000000 0.000000
      length 10.955525
      axis 0.0 0.0 -90.0 xyz
      dof rx ry rz
   end
   begin
      id 11
      name LeftForeArm
      direction 1.000000 0.000000 0.000000
      length 8.193716
      axis 0.0 0.0 -90.0 xyz
      dof ry rz rx
   end
   begin
      id 12
      name LeftHand
      direction 0.000000 0.000000 0.000000
      length 0.000000
      axis 0.0 0.0 -90.0 xyz
      dof rx ry rz
   end
   begin
      id 13
      name LeftHand_dum1
      direction 0.000000 0.000000 0.000000
      length 0.000000
      axis 0.0 0.0 -90.0 xyz
   end
   begin
      id 14
      name LeftHand_dum2
      direction 1.000000 0.000000 0.000000
      length 3.937000
      axis 0.0 0.0 -90.0 xyz
   end
   begin
      id 15
      name LeftHandThumb1
      direction 0.000000 0.000000 1.000000
      length 3.937000
      axis 0.0 0.0 -90.0 xyz
      dof rx rz ry
   end
   begin
      id 16
      name RightShoulder
      direction -1.000000 0.000000 0.000000
      length 7.058872
      axis 0.0 0.0 90.0 xyz
      dof rx ry rz
   end
   begin
      id 17
      name RightArm
      direction -1.000000 0.000000 0.000000
      length 10.955525
      axis 0.0 0.0 90.0 xyz
      dof rx ry rz
   end
   begin
      id 18
      name RightForeArm
      direction -1.000000 0.000000 0.000000
      length 8.193716
      axis 0.0 0.0 90.0 xyz
      dof ry rz rx
   end
   begin
      id 19
      name RightHand
      direction 0.000000 0.000000 0.000000
      length 0.000000
      axis 0.0 0.0 90.0 xyz
      dof rx ry rz
   end
   begin
      id 20
      name RightHand_dum1
      direction 0.000000 0.000000 0.000000
      length 0.000000
      axis 0.0 0.0 90.0 xyz
   end
   begin
      id 21
      name RightHand_dum2
      direction -1.000000 0.000000 0.000000
      length 3.937000
      axis 0.0 0.0 90.0 xyz
   end
   begin
      id 22
      name RightHandThumb1
      direction 0.000000 0.000000 1.000000
      length 3.937000
      axis 0.0 0.0 90.0 xyz
      dof rx rz ry
   end
   begin
      id 23
      name LeftUpLeg
      direction 0.000000 -1.000000 0.000000
      length 17.323638
      axis 0.0 0.0 0.0 xyz
      dof rx ry rz
   end
   begin
      id 24
      name LeftLeg
      direction 0.000000 -1.000000 0.000000
      length 16.270368
      axis 0.0 0.0 0.0 xyz
      dof rx ry rz
   end
   begin
      id 25
      name LeftFoot
      direction 0.000000 -0.258819 0.965926
      length 4.922846
      axis 15.0 0.0 0.0 xyz
      dof rx ry rz
   end
   begin
      id 26
      name LeftToeBase
      direction 0.000000 0.000000 1.000000
      length 2.952750
      axis 0.0 0.0 0.0 xyz
      dof rx ry rz
   end
   begin
      id 27
      name RightUpLeg
      direction 0.000000 -1.000000 0.000000
      length 17.323638
      axis 0.0 0.0 0.0 xyz
      dof rx ry rz
   end
   begin
      id 28
      name RightLeg
      direction 0.000000 -1.000000 0.000000
      length 16.270368
      axis 0.0 0.0 0.0 xyz
      dof rx ry rz
   end
   begin
      id 29
      name RightFoot
      direction 0.000000 -0.258819 0.965926
      length 4.922846
      axis 15.0 0.0 0.0 xyz
      dof rx ry rz
   end
   begin
      id 30
      name RightToeBase
      direction 0.000000 0.000000 1.000000
      length 2.952750
      axis 0.0 0.0 0.0 xyz
      dof rx ry rz
   end
:hierarchy
   begin
      root Spine_dum LeftUpLeg_dum RightUpLeg_dum
      Spine_dum Spine
      LeftUpLeg_dum LeftUpLeg
      RightUpLeg_dum RightUpLeg
      Spine Spine_dum1 Spine_dum2 Spine_dum3
      Spine_dum1 Head
      Spine_dum2 LeftShoulder
      Spine_dum3 RightShoulder
      LeftShoulder LeftArm
      LeftArm LeftForeArm
      LeftForeArm LeftHand
      LeftHand LeftHand_dum1 LeftHand_dum2
      LeftHand_dum1 LeftHandThumb1
      RightShoulder RightArm
      RightArm RightForeArm
      RightForeArm RightHand
      RightHand RightHand_dum1 RightHand_dum2
      RightHand_dum1 RightHandThumb1
      LeftUpLeg LeftLeg
      LeftLeg LeftFoot
      LeftFoot LeftToeBase
      RightUpLeg RightLeg
      RightLeg RightFoot
      RightFoot RightToeBase
   end

# File created by Blade
# Date/Time:  Fri Jan 16 15:45:48 2015
# Frame Rate: 120.000 fps
#------------------------------------------------------
:FULLY-SPECIFIED
:DEGREES
1240
root -5.503373 35.318711 -10.380332 1.454309 1.270745 -4.332567
Spine -4.999064 0.691693 2.263406
Head -7.277922 -7.356639 0.302756
LeftShoulder -20.242172 9.041708 -15.031264
LeftArm 20.720067 18.469758 -67.771443
LeftForeArm 15.674717 0.000000 12.126975
LeftHand 2.197498 -0.000000 -7.833221
LeftHandThumb1 -26.253704 0.000000 33.147579
RightShoulder -14.739668 26.650244 -47.245241
RightArm 26.841707 43.412050 -9.483500
RightForeArm -36.170666 -0.000000 8.867442
RightHand 14.386839 -0.000000 -31.192646
RightHandThumb1 -24.326973 -0.000000 -32.862282
LeftUpLeg 6.211314 11.651231 5.207696
LeftLeg -9.111304 -0.000000 0.000000
LeftFoot -12.761384 23.198084 -9.695446
LeftToeBase 21.860442 -0.000000 -0.000000
RightUpLeg 5.478030 -10.222149 1.235026
RightLeg -4.622086 -0.000000 0.000000
RightFoot -5.324111 -26.062642 7.507355
RightToeBase 12.087543 -0.000000 -0.000000
1241
root -5.505179 35.316336 -10.375688 1.525496 1.258023 -4.349454
Spine -5.064065 0.618628 2.210237
Head -7.346697 -7.392191 0.424119
LeftShoulder -20.181440 9.044699 -14.885187
LeftArm 20.710346 18.536739 -67.823531
LeftForeArm 15.540044 -0.000000 11.911626
LeftHand 2.457864 -0.000000 -8.186272
LeftHandThumb1 -26.253704 0.000000 33.147579
RightShoulder -15.302777 27.984401 -47.959551
RightArm 26.996174 42.462458 -8.336715
RightForeArm -36.334416 -0.000000 9.238274
RightHand 13.927082 -0.000000 -31.853365
RightHandThumb1 -24.326973 -0.000000 -32.862282
LeftUpLeg 6.169291 11.646063 5.214110
LeftLeg -9.150970 -0.000000 0.000000
LeftFoot -12.760703 23.227253 -9.659407
LeftToeBase 21.877034 -0.000000 -0.000000
RightUpLeg 5.414484 -10.242064 1.264868
RightLeg -4.628741 -0.000000 0.000000
RightFoot -5.321179 -26.034407 7.482376
RightToeBase 12.075550 -0.000000 -0.000000
1242
root -5.506868 35.316119 -10.370231 1.580371 1.238054 -4.367494
Spine -5.139200 0.522252 2.204640
Head -7.322987 -7.393191 0.421414
LeftShoulder -20.116368 9.048090 -14.776309
LeftArm 20.562371 18.485718 -67.958101
LeftForeArm 15.632442 -0.000000 11.895361
LeftHand 2.435103 0.000000 -8.485411
LeftHandThumb1 -26.253704 0.000000 33.147579
RightShoulder -15.439099 28.340398 -47.966134
RightArm 26.888773 42.442100 -8.121263
RightForeArm -35.921966 -0.000000 9.209744
RightHand 13.741187 -0.000000 -32.198516
RightHandThumb1 -24.326973 -0.000000 -32.862282
LeftUpLeg 6.143962 11.645666 5.225740
LeftLeg -9.184093 -0.000000 0.000000
LeftFoot -12.758252 23.246007 -9.662979
LeftToeBase 21.870314 -0.000000 -0.000000
RightUpLeg 5.368343 -10.254704 1.291160
RightLeg -4.635949 -0.000000 0.000000
RightFoot -5.287967 -25.996195 7.456541
RightToeBase 12.221866 -0.000000 -0.000000
1243
root -5.508903 35.316030 -10.365585 1.644169 1.224775 -4.378490
Spine -5.221201 0.419196 2.212801
Head -7.302888 -7.393034 0.358089
LeftShoulder -20.131356 9.043876 -14.701879
LeftArm 20.467700 18.503245 -68.048603
LeftForeArm 15.711698 -0.000000 11.900654
LeftHand 2.425524 -0.000000 -8.524462
LeftHandThumb1 -26.253704 0.000000 33.147579
RightShoulder -15.455786 28.313047 -47.840076
RightArm 26.662994 43.019781 -7.930473
RightForeArm -35.594204 -0.000000 9.300730
RightHand 13.462980 -0.000000 -32.326104
RightHandThumb1 -24.326973 -0.000000 -32.862282
LeftUpLeg 6.098129 11.640231 5.230827
LeftLeg -9.197071 -0.000000 0.000000
LeftFoot -12.752937 23.255737 -9.670281
LeftToeBase 21.799317 -0.000000 -0.000000
RightUpLeg 5.318597 -10.252207 1.315544
RightLeg -4.650476 -0.000000 0.000000
RightFoot -5.322701 -25.999598 7.472652
RightToeBase 12.182179 -0.000000 -0.000000
1244
root -5.509338 35.316440 -10.360453 1.710319 1.211800 -4.389260
Spine -5.306995 0.336943 2.222918
Head -7.286057 -7.421715 0.307760
LeftShoulder -20.110599 9.104950 -14.632314
LeftArm 20.418007 18.515991 -68.124181
LeftForeArm 15.758880 -0.000000 11.913778
LeftHand 2.415114 0.000000 -8.562984
LeftHandThumb1 -26.253704 0.000000 33.147579
RightShoulder -15.508795 28.396756 -47.769964
RightArm 26.501616 43.483086 -7.746898
RightForeArm -35.267302 -0.000000 9.310023
RightHand 13.385211 0.000000 -32.230794
RightHandThumb1 -24.326973 -0.000000 -32.862282
LeftUpLeg 6.057282 11.638943 5.230766
LeftLeg -9.230694 -0.000000 0.000000
LeftFoot -12.754943 23.272202 -9.688450
LeftToeBase 21.854118 -0.000000 -0.000000
RightUpLeg 5.264871 -10.267557 1.333290
RightLeg -4.661845 -0.000000 0.000000
RightFoot -5.285983 -25.953770 7.519238
RightToeBase 12.028535 -0.000000 -0.000000
1245
root -5.510041 35.316297 -10.355049 1.769402 1.195717 -4.396637
Spine -5.372286 0.261727 2.228419
Head -7.308761 -7.390416 0.273862
LeftShoulder -20.111349 9.068178 -14.529175
LeftArm 20.301724 18.575703 -68.227503
LeftForeArm 15.801813 -0.000000 11.910283
LeftHand 2.417757 -0.000000 -8.529018
LeftHandThumb1 -26.253704 0.000000 33.147579
RightShoulder -15.626413 28.554702 -47.794245
RightArm 26.370073 43.886479 -7.433951
RightForeArm -35.035853 -0.000000 9.447199
RightHand 12.912544 0.000000 -32.209526
RightHandThumb1 -24.326973 -0.000000 -32.862282
LeftUpLeg 6.019373 11.630289 5.230966
LeftLeg -9.245804 -0.000000 0.000000
LeftFoot -12.753366 23.283050 -9.680906
LeftToeBase 21.856796 -0.000000 -0.000000
RightUpLeg 5.221719 -10.293853 1.351869
RightLeg -4.687809 -0.000000 0.000000
RightFoot -5.297228 -25.928942 7.578967
RightToeBase 12.033803 -0.000000 -0.000000
1246
root -5.510012 35.316907 -10.349682 1.819228 1.187762 -4.398487
Spine -5.422436 0.179164 2.235856
Head -7.344796 -7.342274 0.242350
LeftShoulder -20.127409 9.046236 -14.443584
LeftArm 20.247686 18.675722 -68.280858
LeftForeArm 15.791019 -0.000000 11.882447
LeftHand 2.426925 -0.000000 -8.542447
LeftHandThumb1 -26.253704 0.000000 33.147579
RightShoulder -15.781526 28.631920 -47.821644
RightArm 26.310338 44.275523 -7.139627
RightForeArm -34.699959 -0.000000 9.401236
RightHand 12.644296 0.000000 -32.221117
RightHandThumb1 -24.326973 -0.000000 -32.862282
LeftUpLeg 5.983754 11.619077 5.224183
LeftLeg -9.255118 -0.000000 0.000000
LeftFoot -12.773253 23.296122 -9.738831
LeftToeBase 21.882047 -0.000000 -0.000000
RightUpLeg 5.186746 -10.319642 1.358071
RightLeg -4.701875 -0.000000 0.000000
RightFoot -5.262958 -25.893263 7.526977
RightToeBase 12.058538 -0.000000 -0.000000
1247
root -5.508916 35.317776 -10.344947 1.865809 1.177877 -4.395253
Spine -5.453854 0.123989 2.260976
Head -7.409842 -7.312368 0.159113
LeftShoulder -20.136623 8.934948 -14.366721
LeftArm 20.120653 18.807913 -68.326693
LeftForeArm 15.702067 -0.000000 11.873517
LeftHand 2.510093 -0.000000 -8.495118
LeftHandThumb1 -26.253704 0.000000 33.147579
RightShoulder -15.932727 28.890204 -47.985259
RightArm 26.111596 44.420437 -6.929184
RightForeArm -34.417898 -0.000000 9.480004
RightHand 12.186208 -0.000000 -32.809249
RightHandThumb1 -24.326973 -0.000000 -32.862282
LeftUpLeg 5.951170 11.599285 5.212782
LeftLeg -9.262965 -0.000000 0.000000
LeftFoot -12.767966 23.307307 -9.773825
LeftToeBase 21.803137 -0.000000 -0.000000
RightUpLeg 5.156095 -10.340456 1.359206
RightLeg -4.721691 -0.000000 0.000000
RightFoot -5.245031 -25.876921 7.493117
RightToeBase 12.075443 -0.000000 -0.000000
1248
root -5.508669 35.318436 -10.339926 1.893733 1.170318 -4.399293
Spine -5.465352 0.075371 2.254645
Head -7.447417 -7.151811 0.196153
LeftShoulder -20.195033 8.977647 -14.308031
LeftArm 20.196154 18.860408 -68.366466
LeftForeArm 15.727529 0.000000 11.839474
LeftHand 2.556693 -0.000000 -8.454472
LeftHandThumb1 -26.253704 0.000000 33.147579
RightShoulder -15.800092 28.655877 -47.630600
RightArm 25.608431 45.048822 -7.454346
RightForeArm -34.134523 -0.000000 9.363113
RightHand 12.199684 -0.000000 -31.568666
RightHandThumb1 -24.326973 -0.000000 -32.862282
LeftUpLeg 5.935006 11.589944 5.212831
LeftLeg -9.262936 -0.000000 0.000000
LeftFoot -12.763470 23.321004 -9.754669
LeftToeBase 21.797620 -0.000000 -0.000000
RightUpLeg 5.147301 -10.338087 1.366032
RightLeg -4.746548 -0.000000 0.000000
RightFoot -5.236047 -25.855503 7.570751
RightToeBase 11.996522 -0.000000 -0.000000
1249
root -5.507359 35.318551 -10.334214 1.914901 1.166585 -4.390266
Spine -5.478778 0.049496 2.257600
Head -7.475160 -7.117000 0.181898
LeftShoulder -20.218840 8.972352 -14.247786
LeftArm 20.206373 18.900094 -68.415633
LeftForeArm 15.797464 0.000000 11.826748
LeftHand 2.562645 -0.000000 -8.407471
LeftHandThumb1 -26.253704 0.000000 33.147579
RightShoulder -15.976500 28.826117 -47.724691
RightArm 25.529099 45.343739 -7.240725
RightForeArm -34.094561 0.000000 9.431221
RightHand 11.688744 0.000000 -30.990485
RightHandThumb1 -24.326973 -0.000000 -32.862282
LeftUpLeg 5.918865 11.570591 5.200411
LeftLeg -9.251109 -0.000000 0.000000
LeftFoot -12.799539 23.323751 -9.811039
LeftToeBase 21.851733 -0.000000 -0.000000
RightUpLeg 5.146340 -10.347574 1.356421
RightLeg -4.767869 -0.000000 0.000000
RightFoot -5.228163 -25.855555 7.525163
RightToeBase 12.072652 -0.000000 -0.000000
1250
root -5.505434 35.318735 -10.329581 1.939758 1.162513 -4.382979
Spine -5.489703 0.043649 2.269006
Head -7.522888 -7.115035 0.166282
LeftShoulder -20.249067 8.918167 -14.196504
LeftArm 20.193743 18.990440 -68.444985
LeftForeArm 15.872014 -0.000000 11.822817
LeftHand 2.635356 -0.000000 -8.281140
LeftHandThumb1 -26.253704 0.000000 33.147579
RightShoulder -15.971092 28.854907 -47.710705
RightArm 25.071714 45.641088 -7.491273
RightForeArm -33.582254 -0.000000 9.560651
RightHand 11.435953 -0.000000 -30.551934
RightHandThumb1 -24.326973 -0.000000 -32.862282
LeftUpLeg 5.900246 11.569408 5.186335
LeftLeg -9.243166 -0.000000 0.000000
LeftFoot -12.782102 23.323216 -9.793013
LeftToeBase 21.754518 -0.000000 -0.000000
RightUpLeg 5.133285 -10.353972 1.352087
RightLeg -4.778855 -0.000000 0.000000
RightFoot -5.231208 -25.853689 7.510205
RightToeBase 12.100927 -0.000000 -0.000000
1251
root -5.504487 35.319394 -10.324783 1.960355 1.166263 -4.375049
Spine -5.496947 0.027848 2.266488
Head -7.574594 -7.074074 0.199119
LeftShoulder -20.291839 8.884805 -14.152077
LeftArm 20.197767 19.050417 -68.470735
LeftForeArm 15.941730 -0.000000 11.845339
LeftHand 2.610905 -0.000000 -8.269018
LeftHandThumb1 -26.253704 0.000000 33.147579
RightShoulder -16.025309 28.887891 -47.690662
RightArm 24.741607 45.908755 -7.662691
RightForeArm -33.458521 -0.000000 9.598571
RightHand 10.922125 -0.000000 -29.572529
RightHandThumb1 -24.326973 -0.000000 -32.862282
LeftUpLeg 5.874172 11.551088 5.174735
LeftLeg -9.214063 -0.000000 0.000000
LeftFoot -12.813235 23.323876 -9.825743
LeftToeBase 21.754806 -0.000000 -0.000000
RightUpLeg 5.127530 -10.344367 1.342757
RightLeg -4.790318 -0.000000 0.000000
RightFoot -5.241774 -25.839656 7.614983
RightToeBase 12.004178 -0.000000 -0.000000
1252
root -5.503531 35.320850 -10.321636 1.979197 1.167460 -4.363462
Spine -5.504271 -0.004023 2.248013
Head -7.612538 -6.994980 0.282474
LeftShoulder -20.339050 8.849795 -14.109010
LeftArm 20.189690 19.090165 -68.498253
LeftForeArm 16.079113 -0.000000 11.885918
LeftHand 2.571461 -0.000000 -8.300507
LeftHandThumb1 -26.253704 0.000000 33.147579
RightShoulder -16.038685 28.934296 -47.652610
RightArm 24.370180 46.238256 -7.824834
RightForeArm -33.469105 -0.000000 9.732101
RightHand 10.610044 -0.000000 -28.809057
RightHandThumb1 -24.326973 -0.000000 -32.862282
LeftUpLeg 5.846972 11.545291 5.159466
LeftLeg -9.187453 -0.000000 0.000000
LeftFoot -12.836119 23.321372 -9.862881
LeftToeBase 21.779825 -0.000000 -0.000000
RightUpLeg 5.115281 -10.336906 1.337428
RightLeg -4.797344 -0.000000 0.000000
RightFoot -5.233801 -25.889105 7.540812
RightToeBase 12.091790 -0.000000 -0.000000
